<?xml version="1.0" encoding="utf-8"?>
<!-- Generator: Adobe Illustrator 25.2.0, SVG Export Plug-In . SVG Version: 6.00 Build 0)  -->
<svg version="1.1" xmlns="http://www.w3.org/2000/svg" xmlns:xlink="http://www.w3.org/1999/xlink" x="0px" y="0px"
	 viewBox="0 0 3000 3000" style="enable-background:new 0 0 3000 3000;" xml:space="preserve">
<style type="text/css">
	.st0{display:none;}
	.st1{display:inline;fill:#0C0C0C;}
	.st2{display:none;fill:#FFFFFF;}
	.st3{fill:#FFFFFF;}
</style>
<g id="Layer_2" class="st0">
	<rect x="3194.87" y="34.37" class="st1" width="2964.88" height="1127.75"/>
</g>
<g id="Layer_3">
	<rect x="0" y="0" class="st2" width="3000" height="3000"/>
	<g id="Layer_4">
	</g>
	<rect x="-82.17" y="-82.17" class="st3" width="3164.34" height="3164.34"/>
	<g>
		<g>
			<path d="M1500.34,2511.4c-559.75,1.32-1023.42-456.78-1012.91-1028.35c10.07-548.17,454.78-1015.18,1056.84-993.78
				c532.33,18.92,973.1,451.62,968.44,1016.03C2507.99,2076.35,2037.13,2516.57,1500.34,2511.4z M1264.6,2097.22
				c-1.67-2.08-3.34-4.16-5.01-6.24c132.6-130.66,265.2-261.32,397.79-391.96c-3.87-4.51-4.85-6.61-6.44-7.3
				c-2.94-1.27-6.19-2.15-9.38-2.45c-75.65-7.01-151.23-8.27-225.27,11.54c-100.38,26.86-184.73,84.39-259.6,152.7
				c-93.11,84.95-179.72,177.05-268.58,266.62c-23.09,23.28-21.93,42.2,2.58,64.59c18.59,16.99,37.8,33.55,58.17,48.31
				c230.64,167.12,485.57,221.96,763.49,159.01c206.47-46.76,375.5-156.37,506.1-322.42c177.03-225.07,236.3-480.99,181.27-760.56
				c-44.09-223.99-161.96-404.93-344.61-542.5c-143.19-107.85-305.28-167.71-483.51-181.18c-81.36-6.15-162.88-1.5-243.6,14.59
				C1116.75,642.1,937.3,740.8,799.33,906.4c-173.22,207.91-242.07,448.65-209.18,717.93c14.96,122.53,55.24,236.27,118.39,341.92
				c15.79,26.42,34.89,50.87,56.61,82.21c220.94-285.64,438.08-566.37,655.82-847.86c-7.8-6.74-14.96-13.69-22.86-19.66
				c-68.82-51.96-148.38-74.79-232.64-81.38c-94.42-7.39-188.04,1.52-280.48,22.3c-38.51,8.65-77.08,17.01-117.81,25.99
				c2.73-2.94,3.75-4.46,5.13-5.47c153.17-111.73,324.96-176.12,512.92-194c138.3-13.16,260.25,29.91,362.63,124.9
				c49.18,45.63,96.23,93.64,146.59,137.91c105.06,92.35,224,97.54,337.51,15.94c24.71-17.77,46.82-39.17,70.75-59.43
				c-0.18,3.24,0.11,5.95-0.53,8.4c-20.34,77.68-57.88,145.2-121.01,196.01c-52.1,41.94-112.03,62.2-179.79,62.6
				c-66.68,0.4-129.88-14.37-186.5-46.62c-46.26-26.35-82.49-18.27-124.15,7.51c-116.72,72.23-212.37,167.34-301.61,269.86
				c-12.2,14.01-23,29.25-34.44,43.92c42.59-37.05,126.85-109.14,228.86-187.7c24.52-18.89,63.07-47.68,117.67-52.36
				c18.38-1.57,37.59-0.26,57.74,4.52c83.75,19.83,163.8,47.59,233.1,100.29c62.87,47.81,68.82,101.48,14.2,158.07
				c-24.06,24.92-52.87,46.91-83.09,63.91c-103.74,58.34-208.97,114.04-313.8,170.43C1427.91,2010.36,1346.2,2053.68,1264.6,2097.22
				z"/>
			<path d="M1826.18,1115.02c-91.77-0.01-166.55-74.88-166.48-166.69c0.07-93.19,75.05-168.55,167.52-168.36
				c91.21,0.19,167.44,77.48,167.25,169.58C1994.27,1040.71,1918.68,1115.03,1826.18,1115.02z"/>
		</g>
	</g>
</g>
</svg>
