<svg width="179" height="155" viewBox="0 0 179 155" fill="none" xmlns="http://www.w3.org/2000/svg">
<g clip-path="url(#clip0_595_6346)">
<path d="M12.0758 86.6223C12.3904 86.892 12.7907 87.0375 13.2047 87.0375C13.4523 87.0375 13.6895 86.9872 13.9165 86.8863L24.9843 81.8818L34.0034 89.1314C34.3074 89.3779 34.692 89.5112 35.0866 89.5112C35.4812 89.5112 35.8636 89.3779 36.169 89.1314L45.1885 81.8818L56.2559 86.8863C56.4814 86.9872 56.7202 87.0375 56.9681 87.0375C57.3802 87.0375 57.7824 86.892 58.097 86.6223C58.6028 86.1828 58.813 85.4832 58.6336 84.8392L48.5911 49.3111H48.9883V40.0794C48.9883 38.4299 48.6014 36.8341 47.8359 35.3332C46.755 33.2179 44.9855 31.4293 42.719 30.1626C40.4525 28.8932 37.8139 28.2198 35.0866 28.2198C31.4425 28.2229 27.9999 29.4123 25.3922 31.5718C24.09 32.6489 23.0621 33.9152 22.3381 35.3332C21.5714 36.8315 21.1841 38.4269 21.1841 40.0794V49.305H21.5817L11.5404 84.8392C11.3579 85.4832 11.5685 86.1832 12.0758 86.6223ZM33.7292 84.4747L26.7404 78.8593L28.8245 62.9386H33.7292V84.4747ZM33.7292 60.2212H29.1787L30.4275 50.6662H33.7292V60.2212ZM36.4436 84.4747L36.4447 62.9386H41.3483L43.432 78.8593L36.4436 84.4747ZM36.4447 60.2212V50.6662H39.7453L40.9956 60.2212H36.4447ZM48.8501 62.9386L54.2949 82.2025L46.1254 78.5119L44.0874 62.9386H48.8501ZM48.0834 60.2212H43.7332L42.484 50.6662H45.3824L48.0834 60.2212ZM25.137 40.0794C25.137 39.0591 25.3789 38.0681 25.8565 37.1308C26.5786 35.7159 27.7981 34.4964 29.3832 33.6063C31.0579 32.6721 33.0273 32.1735 35.0744 32.1735H35.098C37.7827 32.1735 40.3916 33.0636 42.2589 34.6152C43.146 35.348 43.8368 36.1962 44.3148 37.1308C44.7939 38.0681 45.0354 39.0591 45.0354 40.0794V47.2106H25.137V40.0794ZM24.7897 50.6662H27.688L26.4392 60.2212H22.089L24.7897 50.6662ZM21.322 62.9386H26.0831L24.0466 78.5119L15.8772 82.2025L21.322 62.9386Z" fill="white"/>
<path d="M52.7211 136.487L43.2278 138.558L10.4072 171.381L23.6211 184.594L56.4413 151.774L58.5132 142.281L82.5469 118.244L76.7556 112.454L52.7211 136.487Z" fill="white"/>
<path d="M177.378 46.9436L163.937 60.3845L150.193 46.6408L168.49 28.3443C168.195 28.0267 167.909 27.7064 167.6 27.3983C167.091 26.8879 166.562 26.3985 166.023 25.9236L147.751 44.1969L134.007 30.4532L146.997 17.4636C145.523 17.2587 144.02 17.1341 142.493 17.0808L131.563 28.0092L123.653 20.0976C122.47 20.5127 121.298 20.9724 120.135 21.4679L129.122 30.4532L113.849 45.7241L101.669 33.5442C101.04 34.1285 100.416 34.7249 99.8035 35.3388C99.5986 35.5407 99.4013 35.7543 99.1979 35.9619L111.406 48.1688L96.1365 63.4367L86.9586 54.2588C86.4722 55.4455 86.0423 56.6437 85.661 57.848L93.6941 65.8811L83.874 75.7004C84.0386 77.1062 84.2743 78.4974 84.5878 79.8739L96.1373 68.3224L109.882 82.0661L94.0384 97.9125C94.5175 98.4404 95.0145 98.9625 95.5276 99.4756C95.833 99.781 96.1476 100.078 96.4607 100.374L112.325 84.5101L126.067 98.2538L114.139 110.182C115.198 110.448 116.268 110.68 117.35 110.861C117.638 110.911 117.927 110.947 118.218 110.989L128.509 100.698L137.151 109.336C138.355 108.96 139.553 108.53 140.746 108.046L130.954 98.2541L146.223 82.9859L159.037 95.798C159.246 95.5992 159.457 95.4064 159.661 95.2015C160.277 94.5842 160.869 93.9615 161.455 93.3296L148.666 80.5415L163.937 65.2706L173.523 74.8549C174.017 73.6921 174.471 72.5202 174.889 71.3339L166.382 62.8262L177.877 51.3311C177.786 49.8446 177.618 48.3795 177.378 46.9436ZM131.563 32.8949L145.308 46.6408L130.037 61.9122L116.292 48.1688L131.563 32.8949ZM98.5794 65.8811L113.849 50.6101L127.592 64.3565L112.324 79.6244L98.5794 65.8811ZM128.509 95.8121L114.767 82.0661L130.037 66.7978L143.779 80.5411L128.509 95.8121ZM146.223 78.0968L132.48 64.3565L147.751 49.0825L161.494 62.8258L146.223 78.0968Z" fill="white"/>
<path d="M192.307 35.7928C189.867 28.1364 185.711 21.0528 179.827 15.1704C173.948 9.29073 166.864 5.13517 159.207 2.69386C147.709 -0.973052 134.952 -0.833276 122.548 2.72928C110.139 6.29489 98.044 13.2985 87.8023 23.5356C80.9796 30.3614 75.7972 37.8129 72.2522 45.5375C66.9305 57.121 65.305 69.3336 67.2378 80.823C69.16 92.3177 74.6524 103.065 83.2979 111.703C89.0573 117.461 95.7524 121.83 102.981 124.666C113.828 128.926 125.869 129.724 137.72 126.844C149.578 123.969 161.23 117.434 171.464 107.197C185.109 93.5429 193.022 76.5985 194.679 59.9896C195.502 51.6869 194.751 43.455 192.307 35.7928ZM181.775 69.438C178.74 80.0072 172.694 90.5231 163.739 99.4729C157.77 105.447 151.389 109.847 144.908 112.822C135.184 117.28 125.245 118.547 115.984 116.992C106.72 115.432 98.1103 111.06 91.0206 103.982C86.2983 99.2562 82.786 93.8487 80.502 88.0315C77.0819 79.3014 76.4055 69.6253 78.771 59.854C81.1415 50.0914 86.5729 40.2192 95.5254 31.2576C107.459 19.3176 122.183 12.5635 136.09 11.1897C143.04 10.5015 149.775 11.1455 155.886 13.097C162.004 15.0547 167.502 18.2942 172.106 22.892C176.708 27.4989 179.947 32.9985 181.902 39.1151C184.832 48.2755 184.814 58.8626 181.775 69.438Z" fill="white"/>
</g>
<defs>
<clipPath id="clip0_595_6346">
<rect width="195" height="195" fill="white"/>
</clipPath>
</defs>
</svg>
