<svg width="101" height="100" viewBox="0 0 101 100" fill="none" xmlns="http://www.w3.org/2000/svg">
<g clip-path="url(#clip0_1112_22040)">
<path d="M87.5 12.5L58.3333 37.5L41.6667 20.8333L12.5 45.8333M18.75 87.5C15.2982 87.5 12.5 84.7017 12.5 81.25V72.9167C12.5 69.465 15.2982 66.6667 18.75 66.6667C22.2018 66.6667 25 69.465 25 72.9167V81.25C25 84.7017 22.2018 87.5 18.75 87.5ZM47.9167 87.5C44.465 87.5 41.6667 84.7017 41.6667 81.25V60.4167C41.6667 56.965 44.465 54.1667 47.9167 54.1667C51.3683 54.1667 54.1667 56.965 54.1667 60.4167V81.25C54.1667 84.7017 51.3683 87.5 47.9167 87.5ZM77.0833 87.5C73.6317 87.5 70.8333 84.7017 70.8333 81.25V68.75C70.8333 65.2983 73.6317 62.5 77.0833 62.5C80.535 62.5 83.3333 65.2983 83.3333 68.75V81.25C83.3333 84.7017 80.535 87.5 77.0833 87.5Z" stroke="white" stroke-width="7" stroke-linecap="round" stroke-linejoin="round"/>
</g>
<defs>
<clipPath id="clip0_1112_22040">
<rect width="100" height="100" fill="white" transform="translate(0.333496)"/>
</clipPath>
</defs>
</svg>
