<svg width="100" height="100" viewBox="0 0 100 100" fill="none" xmlns="http://www.w3.org/2000/svg">
<g clip-path="url(#clip0_1112_22039)">
<path d="M50.0202 43.0918H67.4834C67.3813 35.8206 67.6877 31.9603 62.9695 30.2446C58.7008 28.6106 56.1272 26.9358 56.1272 26.9358L52.8388 37.3525L52.3895 38.7618L50.9189 34.5747C54.3094 29.8361 50.6534 29.6114 50.0202 29.6114C50.0202 29.6114 50.0202 29.6114 49.9998 29.6114C49.9998 29.6114 49.9998 29.6114 49.9793 29.6114C49.3462 29.6114 45.6901 29.8361 49.0807 34.5747L47.6101 38.7618L47.1607 37.3525L43.8723 26.9358C43.8723 26.9358 41.3192 28.6106 37.03 30.2446C32.3119 31.9603 32.6182 35.841 32.5161 43.0918H49.1215H50.0202Z" fill="white"/>
<path d="M42.5858 20.3182C42.9738 22.7692 44.8529 25.8738 47.9575 26.9767C49.2238 27.4261 50.6332 27.4261 51.8995 26.9767C54.9632 25.8738 56.9036 22.7692 57.2917 20.3387C57.7002 20.2978 58.2516 19.7259 58.8235 17.663C59.6201 14.8444 58.7827 14.4359 58.0474 14.4972C58.1903 14.1091 58.2925 13.721 58.3537 13.3329C59.5588 6.04128 55.9845 5.79618 55.9845 5.79618C55.9845 5.79618 55.3921 4.65239 53.8194 3.79455C52.7778 3.1818 51.3072 2.69161 49.3872 2.855C48.7541 2.87543 48.1822 2.99798 47.6103 3.20223C46.8954 3.44733 46.2418 3.79455 45.6699 4.20304C44.9551 4.65239 44.2606 5.22429 43.6683 5.85746C42.7083 6.83785 41.8709 8.08376 41.5033 9.65648C41.1969 10.8207 41.2582 12.0462 41.5237 13.3738C41.585 13.7619 41.6871 14.1499 41.8301 14.538C41.1152 14.4767 40.2573 14.8852 41.0539 17.7039C41.6258 19.7055 42.1773 20.2978 42.5858 20.3182Z" fill="white"/>
<path d="M30.4534 84.3296C26.1846 82.6956 23.6111 81.0208 23.6111 81.0208L20.3227 91.4374L19.8734 92.8467L18.4028 88.6596C21.7933 83.9211 18.1373 83.6964 17.5041 83.6964C17.5041 83.6964 17.5041 83.6964 17.4837 83.6964C17.4837 83.6964 17.4837 83.6964 17.4632 83.6964C16.8301 83.6964 13.174 83.9211 16.5645 88.6596L15.094 92.8467L14.6446 91.4374L11.3562 81.0208C11.3562 81.0208 8.8031 82.6956 4.51389 84.3296C-0.204248 86.0453 0.102124 89.926 0 97.1768H16.6054H17.5041H34.9673C34.8652 89.926 35.1716 86.0453 30.4534 84.3296Z" fill="white"/>
<path d="M10.0897 74.4237C10.4778 76.8747 12.3568 79.9793 15.4614 81.0822C16.7278 81.5316 18.1371 81.5316 19.4034 81.0822C22.4671 79.9793 24.4075 76.8747 24.7956 74.4441C25.2041 74.4033 25.7555 73.8314 26.3274 71.7685C27.124 68.9499 26.2866 68.5414 25.5513 68.6026C25.6943 68.2146 25.7964 67.8265 25.8577 67.4384C27.0627 60.1468 23.4884 59.9017 23.4884 59.9017C23.4884 59.9017 22.8961 58.7579 21.3233 57.9C20.2817 57.2873 18.8111 56.7971 16.8911 56.9605C16.258 56.9809 15.6861 57.1034 15.1142 57.3077C14.3993 57.5528 13.7457 57.9 13.1738 58.3085C12.459 58.7579 11.7645 59.3298 11.1722 59.9629C10.2122 60.9433 9.37481 62.1892 9.00716 63.7619C8.70079 64.9262 8.76206 66.1516 9.02759 67.4793C9.08886 67.8673 9.19099 68.2554 9.33396 68.6435C8.61909 68.5822 7.76125 68.9907 8.55782 71.8093C9.12971 73.811 9.68118 74.3829 10.0897 74.4237Z" fill="white"/>
<path d="M95.4861 84.3296C91.2174 82.6956 88.6438 81.0208 88.6438 81.0208L85.3554 91.4374L84.9061 92.8467L83.4355 88.6596C86.826 83.9211 83.17 83.6964 82.5368 83.6964C82.5368 83.6964 82.5368 83.6964 82.5164 83.6964C82.5164 83.6964 82.5164 83.6964 82.496 83.6964C81.8628 83.6964 78.2067 83.9211 81.5973 88.6596L80.1267 92.8467L79.6773 91.4374L76.3889 81.0208C76.3889 81.0208 73.8358 82.6956 69.5466 84.3296C64.8285 86.0453 65.1348 89.926 65.0327 97.1768H81.6381H82.5368H100C99.8979 89.926 100.184 86.0453 95.4861 84.3296Z" fill="white"/>
<path d="M75.1019 74.4237C75.49 76.8747 77.369 79.9793 80.4736 81.0822C81.74 81.5316 83.1493 81.5316 84.4156 81.0822C87.4793 79.9793 89.4197 76.8747 89.8078 74.4441C90.2163 74.4033 90.7677 73.8314 91.3396 71.7685C92.1362 68.9499 91.2988 68.5414 90.5635 68.6026C90.7065 68.2146 90.8086 67.8265 90.8699 67.4384C92.0749 60.1468 88.5006 59.9017 88.5006 59.9017C88.5006 59.9017 87.9083 58.7579 86.3355 57.9C85.2939 57.2873 83.8233 56.7971 81.9034 56.9605C81.2702 56.9809 80.6983 57.1034 80.1264 57.3077C79.4115 57.5528 78.7579 57.9 78.186 58.3085C77.4712 58.7579 76.7767 59.3298 76.1844 59.9629C75.2244 60.9433 74.387 62.1892 74.0194 63.7619C73.713 64.9262 73.7743 66.1516 74.0398 67.4793C74.1011 67.8673 74.2032 68.2554 74.3462 68.6435C73.6313 68.5822 72.7735 68.9907 73.57 71.8093C74.1419 73.811 74.6934 74.3829 75.1019 74.4237Z" fill="white"/>
<path d="M64.0933 72.3198L52.778 64.9873V51.5069C52.778 49.975 51.532 48.7495 50.0206 48.7495C48.4887 48.7495 47.2633 49.9954 47.2633 51.5069V64.9873L35.9479 72.3198C34.6816 73.1572 34.3139 74.8525 35.1309 76.1392C35.9275 77.3647 37.7044 77.7528 38.9504 76.9562L50.0206 69.7667L61.0909 76.9562C61.5402 77.2422 62.0508 77.4056 62.5819 77.4056C63.5214 77.4056 64.3793 76.9358 64.8899 76.1392C65.7273 74.8525 65.3801 73.1572 64.0933 72.3198Z" fill="white"/>
</g>
<defs>
<clipPath id="clip0_1112_22039">
<rect width="100" height="100" fill="white"/>
</clipPath>
</defs>
</svg>
