<svg width="50" height="51" viewBox="0 0 50 51" fill="none" xmlns="http://www.w3.org/2000/svg">
<path d="M43.9795 48.7529C47.1519 48.7529 49.7236 46.1812 49.7236 43.0088C49.7236 39.8364 47.1519 37.2647 43.9795 37.2647C40.8071 37.2647 38.2354 39.8364 38.2354 43.0088C38.2354 46.1812 40.8071 48.7529 43.9795 48.7529Z" fill="#434343"/>
<path fill-rule="evenodd" clip-rule="evenodd" d="M46.3353 5.69118C40.4706 -0.185292 29.5235 1.20588 21.947 8.79412C17.3382 13.3941 15.0323 19.25 15.2412 24.4441C14.9853 24.6765 14.8441 25.0265 14.9294 25.4059C16.2882 31.5765 10.8765 37.9235 10.8176 37.9912C10.747 38.0735 10.6941 38.1735 10.6588 38.2735L3.6588 45.2735C2.81174 46.1206 2.77939 47.4618 3.58821 48.2735L3.65292 48.3324C4.45292 49.1412 5.79998 49.1118 6.6441 48.2588L13.8647 41.0471C14.3559 40.6735 21.3206 35.5441 26.3353 36.9706C26.6676 37.0676 26.9912 36.9794 27.2353 36.7882C32.5206 37.1147 38.5323 34.7971 43.2412 30.0824C50.8176 22.5029 52.2059 11.5588 46.3353 5.69118ZM21.25 30.9118C20.497 30.1618 19.9206 29.2941 19.4735 28.3559L23.4588 24.3676L27.6617 28.5735L23.6323 32.6059C22.7588 32.1677 21.95 31.6147 21.25 30.9118ZM25.5412 22.2912L29.7 18.1265L33.9059 22.3324L29.7412 26.4912L25.5412 22.2912ZM29.7382 14.0147L25.447 9.72353C27.0294 8.33236 28.7323 7.23236 30.4735 6.42647L33.9029 9.85294L29.7382 14.0147ZM35.9382 11.8882L40.1441 16.0941L35.9823 20.2529L31.7794 16.0529L35.9382 11.8882ZM23.3676 11.7971L27.6617 16.0941L23.5 20.2529L20.0735 16.8235C20.8823 15.0882 21.9794 13.3824 23.3676 11.7971ZM35.9382 24.3676L40.3617 28.7882C38.7794 30.1794 37.0735 31.2765 35.3353 32.0853L31.7794 28.5294L35.9382 24.3676ZM38.0176 22.2912L42.1794 18.1265L45.7323 21.6824C44.9294 23.4235 43.8294 25.1294 42.4382 26.7088L38.0176 22.2912ZM46.8412 18.6382L44.2559 16.0529L47.2206 13.0853C47.4794 14.8294 47.3412 16.7265 46.8412 18.6382ZM44.5588 7.6C45.2588 8.30294 45.8117 9.11177 46.247 9.9853L42.2176 14.0147L38.0147 9.81177L42 5.82941C42.9412 6.27059 43.8088 6.85 44.5588 7.6ZM38.8382 4.91471L35.9794 7.77647L33.5206 5.31765C35.3529 4.84118 37.1559 4.70294 38.8382 4.91471ZM18.9676 19.8735L21.4206 22.3324L18.5588 25.1941C18.35 23.5088 18.4853 21.7059 18.9676 19.8735ZM14.4059 38.1824C14.3382 38.0853 14.3 37.9735 14.2176 37.8882L14.1559 37.8265C14.0706 37.7412 13.9617 37.7059 13.8647 37.6382C14.9323 36.0412 16.3206 33.5412 16.9559 30.6529C17.4823 31.5912 18.1265 32.4676 18.9117 33.25C19.647 33.9882 20.4588 34.6118 21.3412 35.1235C18.5941 35.7882 16.05 37.1529 14.4059 38.1824ZM26.7353 33.5735L29.7 30.6059L32.2853 33.1912C30.3706 33.6941 28.4765 33.8324 26.7353 33.5735Z" fill="#434343"/>
</svg>
