<svg width="25" height="25" viewBox="0 0 25 25" fill="none" xmlns="http://www.w3.org/2000/svg">
  <g clip-path="url(#clip0_547_14452)" transform="scale(-1,1) translate(-25,0)">
    <path d="M18.3927 8.69293C17.3825 9.4639 16.3113 10.1277 15.2147 10.7575C14.8131 10.3828 14.2717 10.2022 13.6492 10.3689C13.0737 10.5231 12.5434 11.0558 12.384 11.6601C11.6913 11.7485 10.9953 11.8224 10.2997 11.8844C10.2301 10.8526 10.2449 9.78814 10.5101 8.81206C10.7359 7.98297 9.87651 7.50166 9.25926 7.72358L8.30384 4.65988C9.27079 4.23429 9.74778 2.99498 9.37118 1.78833C8.97105 0.506268 7.75864 -0.259416 6.66727 0.0806744C5.57639 0.420765 5.01438 1.74078 5.41403 3.02284C5.79399 4.24006 6.90697 4.99037 7.95222 4.77133L8.93886 7.93445C8.84664 8.03389 8.77218 8.15926 8.72799 8.32066C8.33218 9.77853 8.38021 11.3858 8.54161 12.8783C8.59205 13.3485 8.92349 13.8423 9.46533 13.8025C10.5653 13.7203 11.6629 13.6036 12.7572 13.4609C13.1837 14.8703 13.325 16.2916 13.1597 17.7841C12.2639 18.2731 11.2604 18.4119 10.2344 18.2328C8.77843 17.9777 8.15541 20.2041 9.62001 20.4602C11.088 20.7171 12.5799 20.6283 13.9115 19.9995C13.373 21.3892 12.2403 22.2951 10.5351 22.7313C9.0921 23.0997 9.70455 25.3257 11.1485 24.9591C14.5259 24.0979 16.4362 21.6346 16.5818 18.178C16.589 18.1396 16.5947 18.1021 16.6005 18.0632C16.8527 16.161 16.6505 14.2252 16.0611 12.4056C17.1885 11.761 18.2904 11.0832 19.3251 10.2911C20.2584 9.57486 19.34 7.96904 18.3927 8.69293ZM5.73971 2.92148C5.39482 1.81955 5.8574 0.690723 6.76911 0.406354C7.6813 0.121985 8.70301 0.787274 9.04646 1.89017C9.3904 2.99258 8.92782 4.12093 8.01658 4.40578C7.10391 4.69015 6.08316 4.0239 5.73971 2.92148Z" fill="white"/>
    <path d="M14.0849 9.97305C15.1904 9.97305 16.0865 9.07689 16.0865 7.97142C16.0865 6.86595 15.1904 5.96979 14.0849 5.96979C12.9794 5.96979 12.0833 6.86595 12.0833 7.97142C12.0833 9.07689 12.9794 9.97305 14.0849 9.97305Z" fill="white"/>
    <path d="M18.6276 1.99103L16.7792 2.56841V3.25964L18.6276 3.72174V1.99103Z" fill="white"/>
  </g>
  <defs>
    <clipPath id="clip0_547_14452">
      <rect width="25" height="25" fill="white"/>
    </clipPath>
  </defs>
</svg>