<svg width="50" height="51" viewBox="0 0 50 51" fill="none" xmlns="http://www.w3.org/2000/svg">
<g clip-path="url(#clip0_932_9604)">
<path d="M41.5073 46.1837H38.9771V39.4365H41.5073C43.3704 39.4365 44.8809 40.947 44.8809 42.8101C44.8809 44.6732 43.3704 46.1837 41.5073 46.1837Z" fill="#38454F"/>
<path d="M29.6734 40.4156L38.977 41.9667V39.4365L29.11 36.1472C28.9522 36.094 28.7777 36.1269 28.6503 36.234L26.3259 38.1713L28.2058 39.7376L25.1333 42.8101L28.2058 45.8826L26.3259 47.4488L28.6604 49.3946C28.7819 49.4958 28.9472 49.527 29.0973 49.4772L38.977 46.1837V43.6535L29.6734 45.2045C29.6455 45.0367 29.5823 44.8739 29.4524 44.744L27.5185 42.8101L29.4524 40.8762C29.5814 40.7463 29.6455 40.5835 29.6734 40.4156Z" fill="#E6E7E8"/>
<path d="M3.22554 47.3637C3.18169 47.3535 3.13446 47.3544 3.09229 47.3392C3.13446 47.3552 3.18169 47.3535 3.22554 47.3637Z" fill="#E6E7E8"/>
<path d="M3.78401 47.3426C3.68701 47.3704 3.59002 47.3999 3.49219 47.4024C3.59002 47.3999 3.68617 47.3712 3.78401 47.3426Z" fill="#E6E7E8"/>
<path d="M4.32875 47.0389C4.20983 47.1579 4.07404 47.2456 3.93066 47.3071C4.0732 47.2456 4.20983 47.1579 4.32875 47.0389Z" fill="#E6E7E8"/>
<path d="M40.593 27.0223C43.8443 23.771 45.9225 19.7623 46.4437 15.735C46.9438 11.8705 45.9368 8.45979 43.6073 6.1303C41.67 4.19299 39.0006 3.1691 35.8868 3.1691C31.3045 3.1691 26.4988 5.34678 22.7018 9.1438C18.3633 13.4823 16.1283 19.2638 16.8679 24.2332C17.2677 26.9186 16.7296 29.5745 15.3549 31.7125L15.2553 31.8669L15.1575 32.0187L15.0293 32.1469C14.8505 32.3257 14.7662 32.7179 14.8168 32.8528L15.3481 33.8253L16.3307 34.3625C16.3349 34.3625 16.3678 34.371 16.4277 34.371C16.663 34.371 16.9168 34.2571 17.0273 34.1466L17.1505 34.0235L17.2964 33.9282C18.7976 32.9456 20.5528 32.4261 22.3712 32.4261C23.0999 32.4261 23.8311 32.5104 24.5455 32.6765C25.453 32.8882 26.417 32.9954 27.4105 32.9954C31.9919 32.9954 36.7968 30.8185 40.593 27.0223Z" fill="#E6E7E8"/>
<path d="M3.4644 47.4083C3.47368 47.4083 3.48296 47.4033 3.49224 47.4024C3.40115 47.405 3.31343 47.3839 3.22656 47.3636C3.305 47.3822 3.38175 47.4083 3.4644 47.4083Z" fill="#38454F"/>
<path d="M3.93093 47.3071C3.88286 47.3274 3.8331 47.3291 3.78418 47.3426C3.8331 47.3291 3.88286 47.3282 3.93093 47.3071Z" fill="#38454F"/>
<path d="M29.4778 34.554C29.6018 34.5379 29.7258 34.5202 29.8498 34.5017C30.0859 34.4663 30.3229 34.4258 30.5599 34.3802C30.6788 34.3575 30.7969 34.3364 30.9158 34.3111C31.1958 34.252 31.4767 34.1846 31.7575 34.1112C31.8292 34.0926 31.9009 34.0774 31.9735 34.0572C32.326 33.9611 32.6777 33.8539 33.0294 33.7359C33.1188 33.7063 33.2082 33.6718 33.2976 33.6397C33.5607 33.5478 33.8239 33.4508 34.0853 33.347C34.2068 33.299 34.3274 33.2475 34.448 33.1969C34.6842 33.0982 34.9195 32.9945 35.1539 32.8857C35.2745 32.83 35.3952 32.7744 35.5158 32.7153C35.7705 32.5914 36.0243 32.4606 36.2774 32.3248C36.3701 32.2751 36.4629 32.2287 36.5548 32.1781C36.8973 31.9883 37.238 31.7893 37.5745 31.5793C37.6336 31.5422 37.6918 31.5008 37.7516 31.4637C38.0283 31.2875 38.3032 31.1053 38.5748 30.9147C38.6853 30.8371 38.7941 30.7561 38.9046 30.6768C39.1272 30.5149 39.3482 30.3496 39.5675 30.1784C39.6822 30.089 39.7969 29.9979 39.9108 29.906C40.1334 29.7255 40.3527 29.5391 40.5711 29.3485C40.669 29.2624 40.7685 29.1789 40.8655 29.0912C41.1767 28.8112 41.4837 28.5236 41.784 28.2225C49.0482 20.9582 50.3977 10.5438 44.7983 4.94447C44.4744 4.6206 44.1303 4.3254 43.7761 4.04792C43.6614 3.95852 43.5408 3.87924 43.4227 3.79406C43.1747 3.61441 42.9217 3.44236 42.6611 3.2838C42.5186 3.19777 42.3727 3.11765 42.2268 3.03752C41.9737 2.8992 41.7157 2.77016 41.4525 2.6504C41.3015 2.58208 41.1506 2.51292 40.9962 2.45051C40.7103 2.33496 40.4177 2.23375 40.1225 2.13929C39.9867 2.09544 39.8534 2.04652 39.7151 2.00688C39.2799 1.88374 38.8379 1.77831 38.3859 1.69988C38.3572 1.69482 38.3277 1.69313 38.2999 1.68891C37.8739 1.61722 37.4404 1.56746 37.0019 1.53541C36.8492 1.52445 36.694 1.52276 36.5397 1.51601C36.1913 1.50083 35.8413 1.49156 35.4879 1.49999C35.4019 1.50252 35.3159 1.50421 35.2299 1.50758C34.7803 1.52614 34.3266 1.5624 33.8703 1.61891C33.7902 1.62903 33.7092 1.64168 33.6282 1.65265C33.1517 1.71843 32.6743 1.79856 32.1944 1.90483C32.186 1.90651 32.1767 1.90904 32.1683 1.91157C31.6918 2.01784 31.2144 2.14941 30.737 2.29617C30.6611 2.31894 30.586 2.34087 30.5101 2.36448C30.0471 2.51292 29.5849 2.68076 29.1244 2.86631C29.0367 2.90173 28.949 2.938 28.8613 2.97511C28.3957 3.16994 27.9318 3.37994 27.4722 3.61188C27.4191 3.63887 27.3659 3.66839 27.3128 3.69622C26.8641 3.92732 26.4196 4.17612 25.9794 4.44264C25.9304 4.47216 25.8815 4.49915 25.8335 4.52867C25.3839 4.8053 24.9403 5.10556 24.5026 5.4193C24.4199 5.47834 24.3372 5.53822 24.2546 5.59811C23.8253 5.91438 23.4019 6.24753 22.987 6.59839C22.9161 6.65827 22.8469 6.72068 22.7761 6.78225C22.3451 7.15672 21.9192 7.54385 21.5068 7.95627C16.6133 12.8497 14.4053 19.1652 15.1972 24.4871C15.5245 26.6875 15.1374 28.9343 13.9338 30.8059L13.8343 30.9602C13.1823 31.6122 12.9023 32.7963 13.3072 33.6051L15.57 35.868C15.678 35.9228 15.7918 35.9658 15.9116 35.9962C15.9521 36.0063 15.9943 36.0131 16.0356 36.0207C16.1376 36.0392 16.2422 36.051 16.3485 36.0552C16.3915 36.0569 16.4345 36.0594 16.4784 36.0586C16.6201 36.0552 16.7634 36.0434 16.906 36.0156C16.911 36.0147 16.9161 36.0147 16.9212 36.0139C17.0679 35.9844 17.213 35.9388 17.353 35.8857C17.3943 35.8705 17.4331 35.852 17.4736 35.8343C17.5756 35.7896 17.6735 35.7398 17.7679 35.6833C17.8051 35.6614 17.8439 35.6394 17.8793 35.6158C18.0016 35.534 18.118 35.4454 18.2183 35.3451C18.4967 35.1629 18.7868 35.0086 19.0828 34.8669C19.1638 34.8281 19.2456 34.7927 19.3274 34.7564C19.5745 34.6484 19.8267 34.554 20.0823 34.4738C20.1421 34.4553 20.2003 34.4325 20.2602 34.4148C20.5697 34.3262 20.8843 34.2596 21.2023 34.2107C21.2799 34.1989 21.3575 34.193 21.4359 34.1829C21.6932 34.1517 21.9512 34.1331 22.211 34.128C22.2642 34.1272 22.3156 34.1171 22.3687 34.1171C22.4058 34.1171 22.443 34.123 22.4801 34.1238C22.6698 34.1264 22.8596 34.1399 23.0502 34.1567C23.1413 34.1643 23.2324 34.1677 23.3235 34.1786C23.6035 34.2132 23.8835 34.2596 24.161 34.3237C24.624 34.4317 25.1005 34.5059 25.5813 34.5658C25.6993 34.5801 25.8174 34.5936 25.9372 34.6054C26.4196 34.6526 26.9071 34.6855 27.4022 34.6855C27.7412 34.6855 28.0828 34.672 28.4269 34.6501C28.5324 34.6434 28.6386 34.6316 28.7449 34.6231C28.9895 34.6088 29.2332 34.5852 29.4778 34.554ZM22.3713 32.4353C20.5529 32.4353 18.7977 32.9549 17.2965 33.9374L17.1506 34.0327L17.0274 34.1559C16.9169 34.2664 16.6622 34.3802 16.4278 34.3802C16.3679 34.3802 16.335 34.3718 16.3308 34.3718C16.3299 34.3718 16.3299 34.3718 16.3308 34.3718L15.3482 33.8345L14.8169 32.8621C14.7663 32.7271 14.8506 32.335 15.0294 32.1562L15.1576 32.028L15.2554 31.8761L15.355 31.7218C16.7306 29.5838 17.2678 26.927 16.868 24.2425C16.1284 19.2731 18.3642 13.4907 22.7019 9.15307C26.4989 5.35605 31.3046 3.17837 35.8869 3.17837C39.0007 3.17837 41.671 4.20227 43.6074 6.13957C45.9369 8.46906 46.9448 11.8806 46.4438 15.7443C45.9226 19.7716 43.8444 23.7803 40.5931 27.0316C36.7969 30.8278 31.9929 33.0046 27.4115 33.0046C26.4179 33.0046 25.4539 32.8975 24.5464 32.6858C23.832 32.5197 23.1 32.4353 22.3713 32.4353Z" fill="#38454F"/>
<path d="M15.5715 35.8638L13.3087 33.6009C13.3171 33.6178 13.3213 33.6363 13.3306 33.6532L6.18945 40.7943L8.38147 42.9864L15.5226 35.8452C15.5378 35.8537 15.5563 35.8553 15.5715 35.8638Z" fill="#8697CB"/>
<path d="M7.66983 39.3142L2.0578 44.9262C1.64284 45.3412 1.64284 46.0151 2.0578 46.43L2.74602 47.1182C3.16098 47.5332 3.83486 47.5332 4.24982 47.1182L9.86185 41.5062L7.66983 39.3142Z" fill="#38454F"/>
<path d="M32.7561 20.0381H29.3825V18.3513H30.5067C30.9723 18.3513 31.3501 17.9734 31.3501 17.5079C31.3501 17.0423 30.9723 16.6645 30.5067 16.6645H29.3825V13.2908C29.3825 12.8253 29.0046 12.4474 28.5391 12.4474C28.0735 12.4474 27.6956 12.8253 27.6956 13.2908V16.6645H26.0088V14.6968C26.0088 14.2312 25.631 13.8534 25.1654 13.8534C24.6999 13.8534 24.322 14.2312 24.322 14.6968V16.6645H20.9484C20.4828 16.6645 20.105 17.0423 20.105 17.5079C20.105 17.9734 20.4828 18.3513 20.9484 18.3513H24.322V20.0381H22.6352C22.1696 20.0381 21.7918 20.4159 21.7918 20.8815C21.7918 21.3471 22.1696 21.7249 22.6352 21.7249H24.322V24.2551C24.322 24.7207 24.6999 25.0985 25.1654 25.0985C25.631 25.0985 26.0088 24.7207 26.0088 24.2551V21.7249H27.6956V23.4117C27.6956 23.8773 28.0735 24.2551 28.5391 24.2551C29.0046 24.2551 29.3825 23.8773 29.3825 23.4117V21.7249H32.7561C33.2217 21.7249 33.5995 21.3471 33.5995 20.8815C33.5995 20.4159 33.2217 20.0381 32.7561 20.0381ZM26.0088 20.0381V18.3513H27.6956V20.0381H26.0088Z" fill="white"/>
<path d="M21.2652 31.8458C19.4047 31.8458 17.8916 29.954 17.8916 27.6287C17.8916 27.1632 18.2694 26.7853 18.735 26.7853C19.2006 26.7853 19.5784 27.1632 19.5784 27.6287C19.5784 29.0001 20.351 30.159 21.2652 30.159C21.7308 30.159 22.1086 30.5368 22.1086 31.0024C22.1086 31.4679 21.7308 31.8458 21.2652 31.8458Z" fill="white"/>
<path d="M38.9771 41.9667L29.6735 40.4156C29.6456 40.5835 29.5824 40.7463 29.4525 40.8762L27.5186 42.8101L29.4525 44.744C29.5815 44.8731 29.6456 45.0367 29.6735 45.2045L38.9771 43.6535V41.9667Z" fill="white"/>
</g>
<defs>
<clipPath id="clip0_932_9604">
<rect width="48" height="48" fill="white" transform="translate(1 1.5)"/>
</clipPath>
</defs>
</svg>
