<svg width="50" height="51" viewBox="0 0 50 51" fill="none" xmlns="http://www.w3.org/2000/svg">
<path d="M28.0259 17.9945C31.6273 14.9336 34.4573 11.3051 35.6763 7.6836L35.698 7.61874C38.6473 9.37993 41.2015 11.8964 43.0411 15.0826C44.8803 18.2681 45.7825 21.7373 45.8334 25.1713C41.6759 24.2727 37.1121 24.9608 32.8005 26.5861C32.1321 24.7867 31.3736 23.0717 30.5203 21.5938C29.8198 20.3806 28.9655 19.1706 28.0259 17.9945Z" fill="#1C274C"/>
<path fill-rule="evenodd" clip-rule="evenodd" d="M6.95682 35.916C8.7967 39.1027 11.3514 41.6196 14.3014 43.3806L14.3023 43.3779C16.0066 38.2362 20.9687 33.074 26.7851 29.5348C27.7976 28.9185 28.8485 28.3442 29.9264 27.8225C29.297 26.109 28.5926 24.5046 27.8141 23.1562C27.1931 22.0804 26.4222 20.9903 25.5614 19.9154C24.8405 20.4303 24.0997 20.9215 23.3443 21.3854C17.5991 24.9127 10.6096 27.1004 4.46572 25.8904L4.16455 25.831C4.21611 29.2638 5.1184 32.7317 6.95682 35.916Z" fill="#1C274C"/>
<g opacity="0.5">
<path d="M33.8037 29.5469C37.7362 28.0492 41.7445 27.4735 45.2139 28.2348L45.6404 28.3283C45.3866 30.1704 44.8881 31.9731 44.1585 33.6846C42.6493 37.2246 40.1518 40.3742 36.7885 42.6773L36.7627 42.5125C36.6995 42.1142 36.6052 41.5396 36.4789 40.8287C36.2264 39.4077 35.8456 37.4365 35.3316 35.2333C34.917 33.4567 34.4095 31.5006 33.8037 29.5469Z" fill="#1C274C"/>
<path d="M17.3303 7.69593C16.8052 7.28068 16.3777 6.95302 16.0798 6.72802L16.0332 6.69287C19.705 4.93752 23.6753 4.35193 27.4901 4.81433C29.3389 5.03841 31.151 5.50858 32.8747 6.21102L32.7145 6.68693C31.7203 9.641 29.2768 12.8341 25.9887 15.6259C24.467 13.9695 22.8622 12.435 21.4001 11.1236C19.8226 9.7087 18.3796 8.52579 17.3303 7.69593Z" fill="#1C274C"/>
<path d="M21.7092 18.7225C16.3205 22.0311 10.146 23.8242 5.06969 22.8244L4.35596 22.684C5.12529 17.0727 8.16552 11.828 13.0863 8.40668L13.7695 8.90336L13.7738 8.90647L13.7932 8.92072L13.8746 8.98068C13.9471 9.03443 14.0557 9.11534 14.1964 9.22157C14.4777 9.43405 14.8868 9.74757 15.392 10.1471C16.4032 10.9467 17.7948 12.0876 19.3137 13.4499C20.6883 14.6829 22.1422 16.0753 23.5053 17.5429C22.9236 17.9509 22.324 18.345 21.7092 18.7225Z" fill="#1C274C"/>
<path d="M33.76 43.5471L33.7639 43.574L33.765 43.5815L33.8743 44.349C28.4475 46.9117 22.3779 46.9277 17.127 44.7892L17.2688 44.3615C18.6511 40.191 22.9343 35.5363 28.4097 32.2046C29.2322 31.704 30.0725 31.239 30.9237 30.814C31.4491 32.5427 31.9043 34.2965 32.2885 35.9433C32.787 38.0798 33.157 39.9948 33.4022 41.3752C33.5247 42.065 33.616 42.62 33.6762 43.0008C33.7064 43.1915 33.7289 43.3383 33.7435 43.4367L33.76 43.5471Z" fill="#1C274C"/>
</g>
</svg>
