<svg width="50" height="51" viewBox="0 0 50 51" fill="none" xmlns="http://www.w3.org/2000/svg">
<g clip-path="url(#clip0_932_3228)">
<path d="M25 50.5C38.8071 50.5 50 39.3071 50 25.5C50 11.6929 38.8071 0.5 25 0.5C11.1929 0.5 0 11.6929 0 25.5C0 39.3071 11.1929 50.5 25 50.5Z" fill="#F5F8FA"/>
<path d="M25 15.7778C24.6316 15.7778 24.2783 15.6314 24.0179 15.371C23.7574 15.1105 23.6111 14.7572 23.6111 14.3889V4.66667C23.6111 4.29831 23.7574 3.94504 24.0179 3.68457C24.2783 3.42411 24.6316 3.27778 25 3.27778C25.3683 3.27778 25.7216 3.42411 25.9821 3.68457C26.2425 3.94504 26.3889 4.29831 26.3889 4.66667V14.3889C26.3889 14.7572 26.2425 15.1105 25.9821 15.371C25.7216 15.6314 25.3683 15.7778 25 15.7778ZM15.8569 22.0278C15.7146 22.0279 15.5731 22.0058 15.4375 21.9625L4.26941 18.4319C3.91818 18.3209 3.62546 18.0749 3.45563 17.748C3.28581 17.4211 3.25279 17.0401 3.36385 16.6889C3.47491 16.3377 3.72095 16.0449 4.04783 15.8751C4.37472 15.7053 4.75568 15.6723 5.10691 15.7833L16.2764 19.3139C16.5932 19.4135 16.8639 19.6233 17.0393 19.9053C17.2147 20.1873 17.2833 20.5228 17.2326 20.851C17.1818 21.1793 17.0152 21.4784 16.7628 21.6943C16.5104 21.9102 16.189 22.0285 15.8569 22.0278ZM34.7805 21.6236C34.4469 21.6218 34.1251 21.5001 33.8738 21.2807C33.6225 21.0612 33.4585 20.7588 33.4116 20.4285C33.3648 20.0982 33.4383 19.7621 33.6187 19.4815C33.7992 19.2009 34.0745 18.9945 34.3944 18.9L43.7694 16.1806C44.1216 16.0834 44.4979 16.1289 44.8168 16.3072C45.1357 16.4855 45.3714 16.7823 45.473 17.1333C45.5746 17.4842 45.5338 17.8611 45.3594 18.1821C45.1851 18.5032 44.8913 18.7427 44.5416 18.8486L35.1666 21.5681C35.0412 21.6048 34.9112 21.6236 34.7805 21.6236ZM37.5597 42.3986C37.343 42.3988 37.1293 42.3482 36.9356 42.2511C36.742 42.1539 36.5738 42.0127 36.4444 41.8389L28.8625 31.6542C28.7493 31.5082 28.6664 31.3412 28.6185 31.1628C28.5707 30.9844 28.5589 30.7982 28.5839 30.6152C28.6089 30.4322 28.6701 30.2561 28.764 30.097C28.8579 29.938 28.9826 29.7993 29.1307 29.689C29.2789 29.5787 29.4475 29.4991 29.6268 29.4548C29.8061 29.4104 29.9924 29.4023 30.1749 29.4309C30.3574 29.4595 30.5323 29.5242 30.6895 29.6212C30.8467 29.7182 30.9829 29.8455 31.0902 29.9958L38.6722 40.1806C38.8258 40.387 38.9191 40.6321 38.9415 40.8884C38.964 41.1448 38.9148 41.4024 38.7994 41.6324C38.6841 41.8624 38.507 42.0559 38.2881 42.1912C38.0692 42.3265 37.817 42.3983 37.5597 42.3986ZM12.1514 42.2833C11.8977 42.2831 11.6491 42.2134 11.4322 42.0819C11.2154 41.9503 11.0388 41.7619 10.9214 41.5371C10.8041 41.3123 10.7505 41.0596 10.7666 40.8065C10.7826 40.5535 10.8677 40.3096 11.0125 40.1014L18.1305 29.8583C18.2327 29.7041 18.3646 29.5719 18.5186 29.4694C18.6726 29.3669 18.8455 29.2961 19.0271 29.2614C19.2088 29.2266 19.3956 29.2284 19.5766 29.2668C19.7575 29.3052 19.929 29.3794 20.0809 29.4849C20.2328 29.5905 20.3621 29.7253 20.4611 29.8815C20.5602 30.0377 20.6271 30.2121 20.6579 30.3945C20.6886 30.5769 20.6826 30.7636 20.6403 30.9437C20.5979 31.1237 20.52 31.2935 20.4111 31.4431L13.293 41.6861C13.1655 41.8708 12.9949 42.0217 12.796 42.1258C12.5971 42.2298 12.3758 42.2839 12.1514 42.2833ZM4.86107 38.0861C4.24996 38.0861 3.68885 37.6792 3.5208 37.0611L0.481908 25.8639C0.434213 25.6878 0.42167 25.504 0.444995 25.3231C0.46832 25.1421 0.527057 24.9675 0.617852 24.8093C0.708647 24.6511 0.829722 24.5122 0.974164 24.4008C1.11861 24.2893 1.28359 24.2074 1.45969 24.1597C1.63578 24.112 1.81955 24.0995 2.0005 24.1228C2.18145 24.1461 2.35603 24.2049 2.51427 24.2957C2.67252 24.3865 2.81133 24.5075 2.92279 24.652C3.03424 24.7964 3.11616 24.9614 3.16385 25.1375L6.20274 36.3347C6.25902 36.5407 6.26694 36.757 6.22587 36.9666C6.1848 37.1761 6.09585 37.3734 5.96598 37.5429C5.8361 37.7125 5.6688 37.8497 5.47714 37.9439C5.28548 38.0382 5.07464 38.0868 4.86107 38.0861ZM30.5555 47.7222H18.0555C17.6872 47.7222 17.3339 47.5759 17.0734 47.3154C16.813 47.055 16.6666 46.7017 16.6666 46.3333C16.6666 45.965 16.813 45.6117 17.0734 45.3512C17.3339 45.0908 17.6872 44.9444 18.0555 44.9444H30.5555C30.9239 44.9444 31.2771 45.0908 31.5376 45.3512C31.7981 45.6117 31.9444 45.965 31.9444 46.3333C31.9444 46.7017 31.7981 47.055 31.5376 47.3154C31.2771 47.5759 30.9239 47.7222 30.5555 47.7222ZM44.6194 38.1736C44.4087 38.1739 44.2007 38.1261 44.0111 38.034C43.8216 37.9419 43.6556 37.8078 43.5256 37.642C43.3956 37.4761 43.3051 37.2828 43.2609 37.0768C43.2168 36.8707 43.2202 36.6573 43.2708 36.4528L46.2222 24.4736C46.2616 24.2922 46.3371 24.1206 46.444 23.9688C46.5509 23.8171 46.6872 23.6883 46.8447 23.5901C47.0023 23.4919 47.1779 23.4263 47.3612 23.3972C47.5446 23.368 47.7319 23.3759 47.9121 23.4204C48.0923 23.4649 48.2618 23.545 48.4105 23.6561C48.5593 23.7672 48.6842 23.907 48.778 24.0672C48.8717 24.2274 48.9325 24.4048 48.9565 24.5889C48.9806 24.7729 48.9675 24.96 48.918 25.1389L45.9666 37.1181C45.8097 37.75 45.243 38.1736 44.6194 38.1736ZM42.1 11.1778C41.8561 11.1779 41.6166 11.1137 41.4055 10.9917L30.9027 4.91528C30.7448 4.82385 30.6065 4.7022 30.4956 4.55729C30.3848 4.41238 30.3035 4.24704 30.2566 4.07072C30.2096 3.8944 30.1979 3.71056 30.222 3.52971C30.2461 3.34885 30.3057 3.17451 30.3972 3.01667C30.4882 2.85856 30.6096 2.71999 30.7543 2.60889C30.899 2.4978 31.0643 2.41637 31.2405 2.36927C31.4168 2.32217 31.6006 2.31033 31.7815 2.33443C31.9623 2.35854 32.1366 2.41811 32.2944 2.50972L42.7972 8.58611C43.0622 8.73911 43.2692 8.97532 43.3861 9.25806C43.5031 9.5408 43.5234 9.85424 43.4439 10.1497C43.3644 10.4452 43.1896 10.7061 42.9466 10.892C42.7035 11.0779 42.4059 11.1784 42.1 11.1778ZM7.64024 11.1778C7.34592 11.1783 7.05905 11.0853 6.82101 10.9122C6.58297 10.7391 6.40607 10.4949 6.31583 10.2147C6.22559 9.93459 6.22668 9.63302 6.31893 9.35353C6.41119 9.07405 6.58985 8.83109 6.82913 8.65972L15.4236 2.49583C15.7234 2.29691 16.0887 2.22197 16.4426 2.28678C16.7965 2.35159 17.1116 2.55109 17.3214 2.84335C17.5313 3.13561 17.6197 3.49786 17.5681 3.85394C17.5164 4.21003 17.3287 4.53222 17.0444 4.75278L8.44857 10.9167C8.21301 11.086 7.93034 11.1773 7.64024 11.1778Z" fill="#CCD6DD"/>
<path d="M35.4069 19.2722L25.3958 12.2125C25.1595 12.0463 24.8772 11.9578 24.5883 11.9593C24.2993 11.9608 24.018 12.0522 23.7833 12.2208L13.8292 19.3972C13.5965 19.5651 13.4215 19.8009 13.3282 20.0722C13.235 20.3435 13.228 20.6371 13.3083 20.9125L16.7806 32.8333C16.8647 33.1218 17.0401 33.3752 17.2806 33.5556C17.521 33.7359 17.8134 33.8333 18.1139 33.8333H30.5556C30.8464 33.8334 31.13 33.7422 31.3662 33.5725C31.6024 33.4028 31.7794 33.1632 31.8722 32.8875L35.9236 20.85C36.0189 20.5664 36.0201 20.2597 35.927 19.9754C35.8339 19.6911 35.6515 19.4445 35.4069 19.2722ZM1.79444 27.6417C2.04102 27.6417 2.28317 27.5762 2.49602 27.4517C2.70886 27.3272 2.88473 27.1483 3.00556 26.9333L7.69306 18.6C7.76379 18.4739 7.8144 18.3375 7.84306 18.1958L9.69444 9.11111C9.7359 8.90927 9.73188 8.70072 9.68268 8.50062C9.63348 8.30053 9.54032 8.1139 9.40998 7.9543C9.27964 7.7947 9.11539 7.66614 8.92916 7.57795C8.74293 7.48975 8.53939 7.44415 8.33333 7.44444H7.73889C2.97917 11.9958 0 18.3944 0 25.5C0 25.8694 0.0388889 26.2292 0.0555556 26.5944L0.891667 27.3083C1.14444 27.525 1.46528 27.6417 1.79444 27.6417ZM14.7458 4.65972C14.8186 4.80973 14.9263 4.94003 15.06 5.03962C15.1937 5.13922 15.3493 5.20518 15.5139 5.23194L24.3681 6.67917C24.4799 6.69587 24.5937 6.69587 24.7056 6.67917L33.1556 5.29028C33.2939 5.26786 33.4262 5.2177 33.5446 5.14281C33.663 5.06793 33.7651 4.96986 33.8446 4.85452C33.9241 4.73917 33.9795 4.60893 34.0074 4.47162C34.0353 4.33432 34.0352 4.19279 34.0069 4.05556L33.6014 2.05139C30.8483 1.03072 27.9362 0.505484 25 0.5C21.6319 0.5 18.425 1.175 15.4931 2.38333L14.7694 3.70278C14.6895 3.84885 14.6457 4.01192 14.6416 4.17839C14.6374 4.34485 14.6732 4.50988 14.7458 4.65972ZM43.2417 8.44306L41.1528 8.31111C40.9949 8.3015 40.8368 8.3276 40.6904 8.38747C40.5439 8.44734 40.4129 8.53945 40.3069 8.65694C40.2022 8.77449 40.1258 8.91449 40.0837 9.06619C40.0415 9.21788 40.0348 9.37722 40.0639 9.53194L41.6847 18.1403C41.7084 18.251 41.7522 18.3565 41.8139 18.4514C43.8861 21.9292 46.1917 25.8139 46.5097 26.4819C46.5431 26.5986 46.5958 26.5917 46.6681 26.6917C46.8625 26.9625 47.1847 26.8889 47.5181 26.8889H47.5278C47.8028 26.8889 47.9764 27.0194 49.9833 25.8431C49.9847 25.7278 50 25.6153 50 25.5C50 18.8986 47.4222 12.9111 43.2417 8.44306ZM20.1958 46.8556C20.2108 46.5785 20.1154 46.3068 19.9306 46.1L13.6806 39.1556C13.5973 39.0631 13.498 38.9864 13.3875 38.9292C5.21389 34.6667 5.0625 34.6167 4.9625 34.5819C4.85391 34.5467 4.74054 34.5285 4.62639 34.5278C3.88056 34.5278 3.66111 34.6181 2.98056 37.3389C6.12001 43.1612 11.434 47.5061 17.7639 49.4264L19.8472 47.575C20.0541 47.3908 20.1795 47.1321 20.1958 46.8556ZM44.9639 34.9569C44.8336 34.902 44.6935 34.8743 44.5521 34.8755C44.4107 34.8767 44.271 34.9068 44.1417 34.9639L35.6931 38.6681C35.5456 38.7318 35.4153 38.8294 35.3125 38.9528L29.4097 46.0125C29.3216 46.1183 29.2553 46.2405 29.2145 46.372C29.1738 46.5035 29.1595 46.6418 29.1724 46.7789C29.1853 46.916 29.2252 47.0491 29.2897 47.1708C29.3543 47.2924 29.4423 47.4 29.5486 47.4875C30.4972 48.2639 31.3 48.9181 32.0028 49.4875C38.1042 47.6979 43.2956 43.6526 46.5222 38.1736L45.5333 35.55C45.4837 35.4176 45.4076 35.2968 45.3097 35.1948C45.2118 35.0929 45.0941 35.0119 44.9639 34.9569Z" fill="#31373D"/>
</g>
<defs>
<clipPath id="clip0_932_3228">
<rect width="50" height="50" fill="white" transform="translate(0 0.5)"/>
</clipPath>
</defs>
</svg>
