<svg width="50" height="51" viewBox="0 0 50 51" fill="none" xmlns="http://www.w3.org/2000/svg">
<g opacity="0.5">
<path fill-rule="evenodd" clip-rule="evenodd" d="M9.52076 37.7206C10.9517 35.4835 14.0154 35.5569 15.5367 37.5042C17.5992 40.1444 20.4783 42.6879 25.0003 42.6879C29.6015 42.6879 32.4371 40.6487 34.3855 38.0439C35.8855 36.0389 39.1475 35.7114 40.7203 38.091C42.0223 40.061 43.4348 41.6058 46.1919 42.2554C47.0319 42.4533 47.5523 43.2946 47.3544 44.1346C47.1565 44.9746 46.315 45.495 45.4753 45.2971C41.6169 44.3879 39.6261 42.1029 38.1132 39.814C37.9944 39.6346 37.8163 39.5433 37.5848 39.5477C37.338 39.5523 37.0698 39.6727 36.888 39.916C34.4553 43.1679 30.7507 45.8129 25.0003 45.8129C19.0782 45.8129 15.3931 42.3964 13.0741 39.4281C12.9247 39.2367 12.7297 39.1639 12.5619 39.1675C12.4038 39.171 12.259 39.2392 12.1533 39.4046C10.6127 41.8131 8.62336 44.3314 4.52522 45.2971C3.68528 45.495 2.84392 44.9746 2.64601 44.1346C2.44809 43.2946 2.96855 42.4533 3.80851 42.2554C6.72713 41.5677 8.14099 39.8777 9.52076 37.7206Z" fill="#1C274C"/>
</g>
<g opacity="0.5">
<path fill-rule="evenodd" clip-rule="evenodd" d="M9.52076 27.1779C10.9517 24.9408 14.0154 25.0142 15.5367 26.9615C17.5992 29.6015 20.4783 32.1452 25.0003 32.1452C29.6015 32.1452 32.4371 30.1058 34.3855 27.5013C35.8855 25.496 39.1475 25.1685 40.7203 27.5481C42.0223 29.5183 43.4348 31.0629 46.1919 31.7125C47.0319 31.9104 47.5523 32.7519 47.3544 33.5919C47.1565 34.4317 46.315 34.9523 45.4753 34.7544C41.6169 33.8452 39.6261 31.5602 38.1132 29.2713C37.9944 29.0917 37.8163 29.0004 37.5848 29.0048C37.338 29.0096 37.0698 29.1298 36.888 29.3731C34.4553 32.625 30.7507 35.2702 25.0003 35.2702C19.0782 35.2702 15.3931 31.8538 13.0741 28.8852C12.9247 28.694 12.7297 28.621 12.5619 28.6248C12.4038 28.6281 12.259 28.6965 12.1533 28.8617C10.6127 31.2702 8.62336 33.7885 4.52522 34.7544C3.68528 34.9523 2.84392 34.4317 2.64601 33.5919C2.44809 32.7519 2.96855 31.9104 3.80851 31.7125C6.72713 31.0248 8.14099 29.335 9.52076 27.1779Z" fill="#1C274C"/>
</g>
<path d="M40.6252 11.9583C40.6252 14.8348 38.2935 17.1667 35.4168 17.1667C32.5404 17.1667 30.2085 14.8348 30.2085 11.9583C30.2085 9.08185 32.5404 6.75 35.4168 6.75C38.2935 6.75 40.6252 9.08185 40.6252 11.9583Z" fill="#1C274C"/>
<path d="M34.6783 27.1537L32.2917 24.4583L18.7517 9.11284C17.6219 7.83243 15.646 7.77074 14.4386 8.9782C13.3447 10.072 13.2775 11.8236 14.2842 12.9981L16.3419 15.3988C17.6012 16.8679 15.5771 20.1122 15.5771 20.1122L10.6567 26.0394C12.2144 25.0619 14.3471 25.4387 15.5366 26.9614C17.5991 29.6014 20.4782 32.1452 25 32.1452C29.6015 32.1452 32.4371 30.1058 34.3854 27.5012C34.4769 27.3792 34.5748 27.2633 34.6783 27.1537Z" fill="#1C274C"/>
</svg>
